<svg xmlns="http://www.w3.org/2000/svg" width="1280" height="720" viewBox="0 0 1280 720">
<defs><linearGradient id="g" x1="0" y1="0" x2="1" y2="1"><stop stop-color="#517a48"/><stop offset="1" stop-color="#9fbe7d"/></linearGradient></defs>
<rect width="1280" height="720" fill="url(#g)"/>
<circle cx="1110" cy="115" r="145" fill="#fff" opacity=".10"/>
<circle cx="1035" cy="80" r="52" fill="#fff" opacity=".18"/>
<path d="M0 600 L270 315 L430 500 L690 210 L945 505 L1120 360 L1280 610 V720 H0Z" fill="#fff" opacity=".15"/><path d="M705 240 C735 330 670 355 715 435 C755 505 705 550 730 625" fill="none" stroke="#fff" stroke-width="18" opacity=".4"/>
<text x="74" y="105" fill="#fff" font-family="Arial,Helvetica,sans-serif" font-size="31" font-weight="700" opacity=".9">WANDELEN</text>
<text x="74" y="265" fill="#fff" font-family="Arial,Helvetica,sans-serif" font-size="104">🥾</text>
<text x="74" y="385" fill="#fff" font-family="Arial,Helvetica,sans-serif" font-size="58" font-weight="800">Cascade d’Angon</text>
<text x="74" y="448" fill="#fff" font-family="Arial,Helvetica,sans-serif" font-size="27" opacity=".88">Annecy Family PlayBook · passend activiteitsbeeld</text>
<rect x="74" y="540" rx="28" ry="28" width="340" height="58" fill="#fff" opacity=".18"/>
<text x="102" y="578" fill="#fff" font-family="Arial,Helvetica,sans-serif" font-size="25" font-weight="700">Geen willekeurige stockfoto</text>
</svg>