<svg xmlns="http://www.w3.org/2000/svg" width="1280" height="720" viewBox="0 0 1280 720">
<defs><linearGradient id="g" x1="0" y1="0" x2="1" y2="1"><stop stop-color="#2f7d5b"/><stop offset="1" stop-color="#8cc9a7"/></linearGradient></defs>
<rect width="1280" height="720" fill="url(#g)"/>
<circle cx="1110" cy="115" r="145" fill="#fff" opacity=".10"/>
<circle cx="1035" cy="80" r="52" fill="#fff" opacity=".18"/>
<path d="M0 575 L245 330 L420 520 L665 245 L930 525 L1100 365 L1280 565 V720 H0Z" fill="#fff" opacity=".16"/><circle cx="910" cy="510" r="58" fill="none" stroke="#fff" stroke-width="12" opacity=".34"/><circle cx="1080" cy="510" r="58" fill="none" stroke="#fff" stroke-width="12" opacity=".34"/><path d="M910 510 L975 430 L1030 510 L1080 510 M975 430 L1015 390" stroke="#fff" stroke-width="12" fill="none" opacity=".34"/>
<text x="74" y="105" fill="#fff" font-family="Arial,Helvetica,sans-serif" font-size="31" font-weight="700" opacity=".9">FIETSEN</text>
<text x="74" y="265" fill="#fff" font-family="Arial,Helvetica,sans-serif" font-size="104">🚲</text>
<text x="74" y="385" fill="#fff" font-family="Arial,Helvetica,sans-serif" font-size="58" font-weight="800">Fietsen langs het meer</text>
<text x="74" y="448" fill="#fff" font-family="Arial,Helvetica,sans-serif" font-size="27" opacity=".88">Annecy Family PlayBook · passend activiteitsbeeld</text>
<rect x="74" y="540" rx="28" ry="28" width="340" height="58" fill="#fff" opacity=".18"/>
<text x="102" y="578" fill="#fff" font-family="Arial,Helvetica,sans-serif" font-size="25" font-weight="700">Geen willekeurige stockfoto</text>
</svg>